<mxfile host="app.diagrams.net" modified="2023-07-05T09:09:26.706Z" agent="Mozilla/5.0 (Windows NT 10.0; Win64; x64) AppleWebKit/537.36 (KHTML, like Gecko) Chrome/114.0.0.0 Safari/537.36" etag="lr4E99hTX9n77uxYToq7" version="21.5.2" type="device">
  <diagram name="페이지-1" id="1_4jLRTt6C4VgZk9_CI8">
    <mxGraphModel dx="1687" dy="1078" grid="1" gridSize="10" guides="1" tooltips="1" connect="1" arrows="1" fold="1" page="1" pageScale="1" pageWidth="827" pageHeight="1169" math="0" shadow="0">
      <root>
        <mxCell id="0" />
        <mxCell id="1" parent="0" />
        <mxCell id="0yb1WNiDXI75J15WsoSP-32" style="edgeStyle=orthogonalEdgeStyle;rounded=0;orthogonalLoop=1;jettySize=auto;html=1;exitX=0.5;exitY=1;exitDx=0;exitDy=0;entryX=0.699;entryY=0.032;entryDx=0;entryDy=0;entryPerimeter=0;" parent="1" edge="1">
          <mxGeometry relative="1" as="geometry">
            <Array as="points">
              <mxPoint x="317" y="413" />
              <mxPoint x="317" y="120" />
              <mxPoint x="1045" y="120" />
              <mxPoint x="1045" y="305" />
              <mxPoint x="1044" y="331" />
            </Array>
            <mxPoint x="319" y="413" as="sourcePoint" />
            <mxPoint x="1047.1039999999998" y="330.55999999999995" as="targetPoint" />
          </mxGeometry>
        </mxCell>
        <mxCell id="0yb1WNiDXI75J15WsoSP-36" style="edgeStyle=orthogonalEdgeStyle;rounded=0;orthogonalLoop=1;jettySize=auto;html=1;exitX=0.5;exitY=1;exitDx=0;exitDy=0;entryX=0.625;entryY=0.963;entryDx=0;entryDy=0;entryPerimeter=0;" parent="1" source="0yb1WNiDXI75J15WsoSP-34" target="UnH_teKRYjCoHpWosyrO-42" edge="1">
          <mxGeometry relative="1" as="geometry">
            <Array as="points">
              <mxPoint x="143" y="800" />
              <mxPoint x="1040" y="800" />
            </Array>
          </mxGeometry>
        </mxCell>
        <mxCell id="UnH_teKRYjCoHpWosyrO-82" value="세무매니저 시스템" style="swimlane;whiteSpace=wrap;html=1;fillColor=#fff2cc;strokeColor=#FFD966;strokeWidth=2;" parent="1" vertex="1">
          <mxGeometry x="90" y="159" width="869" height="601" as="geometry" />
        </mxCell>
        <mxCell id="0yb1WNiDXI75J15WsoSP-3" value="&amp;lt;&amp;lt;include&amp;gt;&amp;gt;" style="html=1;verticalAlign=bottom;labelBackgroundColor=none;endArrow=open;endFill=0;dashed=1;rounded=0;entryX=0;entryY=0.5;entryDx=0;entryDy=0;" parent="UnH_teKRYjCoHpWosyrO-82" target="0yb1WNiDXI75J15WsoSP-4" edge="1">
          <mxGeometry width="160" relative="1" as="geometry">
            <mxPoint x="97" y="114.5" as="sourcePoint" />
            <mxPoint x="167" y="115" as="targetPoint" />
          </mxGeometry>
        </mxCell>
        <mxCell id="0yb1WNiDXI75J15WsoSP-33" style="edgeStyle=orthogonalEdgeStyle;rounded=0;orthogonalLoop=1;jettySize=auto;html=1;exitX=0.5;exitY=0;exitDx=0;exitDy=0;" parent="UnH_teKRYjCoHpWosyrO-82" source="0yb1WNiDXI75J15WsoSP-4" edge="1">
          <mxGeometry relative="1" as="geometry">
            <mxPoint x="939" y="171" as="targetPoint" />
            <Array as="points">
              <mxPoint x="204" y="-19" />
              <mxPoint x="939" y="-19" />
            </Array>
          </mxGeometry>
        </mxCell>
        <mxCell id="0yb1WNiDXI75J15WsoSP-4" value="메인메뉴(홈)" style="ellipse;whiteSpace=wrap;html=1;" parent="UnH_teKRYjCoHpWosyrO-82" vertex="1">
          <mxGeometry x="159" y="100" width="90" height="30" as="geometry" />
        </mxCell>
        <mxCell id="0yb1WNiDXI75J15WsoSP-7" value="" style="endArrow=none;html=1;rounded=0;" parent="UnH_teKRYjCoHpWosyrO-82" edge="1">
          <mxGeometry width="50" height="50" relative="1" as="geometry">
            <mxPoint x="-31" y="270" as="sourcePoint" />
            <mxPoint x="10" y="241" as="targetPoint" />
          </mxGeometry>
        </mxCell>
        <mxCell id="0yb1WNiDXI75J15WsoSP-8" value="의뢰내역" style="ellipse;whiteSpace=wrap;html=1;" parent="UnH_teKRYjCoHpWosyrO-82" vertex="1">
          <mxGeometry x="305" y="100" width="67" height="30" as="geometry" />
        </mxCell>
        <mxCell id="UnH_teKRYjCoHpWosyrO-40" value="파일선택" style="ellipse;whiteSpace=wrap;html=1;" parent="UnH_teKRYjCoHpWosyrO-82" vertex="1">
          <mxGeometry x="748" y="250" width="70" height="30" as="geometry" />
        </mxCell>
        <mxCell id="0yb1WNiDXI75J15WsoSP-12" value="주요정보" style="ellipse;whiteSpace=wrap;html=1;" parent="UnH_teKRYjCoHpWosyrO-82" vertex="1">
          <mxGeometry x="538" y="60" width="62" height="30" as="geometry" />
        </mxCell>
        <mxCell id="0yb1WNiDXI75J15WsoSP-13" value="담당자정보" style="ellipse;whiteSpace=wrap;html=1;" parent="UnH_teKRYjCoHpWosyrO-82" vertex="1">
          <mxGeometry x="538" y="120" width="72" height="30" as="geometry" />
        </mxCell>
        <mxCell id="0yb1WNiDXI75J15WsoSP-15" value="&amp;lt;&amp;lt;include&amp;gt;&amp;gt;" style="html=1;verticalAlign=bottom;labelBackgroundColor=none;endArrow=open;endFill=0;dashed=1;rounded=0;entryX=0;entryY=0.5;entryDx=0;entryDy=0;exitX=1;exitY=0.5;exitDx=0;exitDy=0;exitPerimeter=0;" parent="UnH_teKRYjCoHpWosyrO-82" source="0yb1WNiDXI75J15WsoSP-4" target="0yb1WNiDXI75J15WsoSP-8" edge="1">
          <mxGeometry width="160" relative="1" as="geometry">
            <mxPoint x="257" y="114.5" as="sourcePoint" />
            <mxPoint x="417" y="114.5" as="targetPoint" />
          </mxGeometry>
        </mxCell>
        <mxCell id="0yb1WNiDXI75J15WsoSP-16" value="&amp;lt;&amp;lt;extend&amp;gt;&amp;gt;" style="html=1;verticalAlign=bottom;labelBackgroundColor=none;endArrow=open;endFill=0;dashed=1;rounded=0;entryX=1;entryY=0.5;entryDx=0;entryDy=0;" parent="UnH_teKRYjCoHpWosyrO-82" target="0yb1WNiDXI75J15WsoSP-20" edge="1">
          <mxGeometry width="160" relative="1" as="geometry">
            <mxPoint x="538" y="75.5" as="sourcePoint" />
            <mxPoint x="498" y="115" as="targetPoint" />
          </mxGeometry>
        </mxCell>
        <mxCell id="0yb1WNiDXI75J15WsoSP-17" value="&amp;lt;&amp;lt;extend&amp;gt;&amp;gt;" style="html=1;verticalAlign=bottom;labelBackgroundColor=none;endArrow=open;endFill=0;dashed=1;rounded=0;entryX=1;entryY=0.5;entryDx=0;entryDy=0;" parent="UnH_teKRYjCoHpWosyrO-82" target="0yb1WNiDXI75J15WsoSP-20" edge="1">
          <mxGeometry x="-0.3645" y="21" width="160" relative="1" as="geometry">
            <mxPoint x="538" y="134.5" as="sourcePoint" />
            <mxPoint x="498" y="120" as="targetPoint" />
            <mxPoint y="1" as="offset" />
          </mxGeometry>
        </mxCell>
        <mxCell id="0yb1WNiDXI75J15WsoSP-20" value="내역조회" style="ellipse;whiteSpace=wrap;html=1;" parent="UnH_teKRYjCoHpWosyrO-82" vertex="1">
          <mxGeometry x="423" y="100" width="67" height="30" as="geometry" />
        </mxCell>
        <mxCell id="0yb1WNiDXI75J15WsoSP-21" value="&amp;lt;&amp;lt;include&amp;gt;&amp;gt;" style="html=1;verticalAlign=bottom;labelBackgroundColor=none;endArrow=open;endFill=0;dashed=1;rounded=0;entryX=0;entryY=0.5;entryDx=0;entryDy=0;exitX=1;exitY=0.5;exitDx=0;exitDy=0;" parent="UnH_teKRYjCoHpWosyrO-82" source="0yb1WNiDXI75J15WsoSP-8" target="0yb1WNiDXI75J15WsoSP-20" edge="1">
          <mxGeometry width="160" relative="1" as="geometry">
            <mxPoint x="389" y="114.5" as="sourcePoint" />
            <mxPoint x="549" y="114.5" as="targetPoint" />
          </mxGeometry>
        </mxCell>
        <mxCell id="0yb1WNiDXI75J15WsoSP-26" value="문서조회" style="ellipse;whiteSpace=wrap;html=1;" parent="UnH_teKRYjCoHpWosyrO-82" vertex="1">
          <mxGeometry x="652" y="60" width="58" height="30" as="geometry" />
        </mxCell>
        <mxCell id="0yb1WNiDXI75J15WsoSP-27" value="다운로드" style="ellipse;whiteSpace=wrap;html=1;" parent="UnH_teKRYjCoHpWosyrO-82" vertex="1">
          <mxGeometry x="754" y="60" width="66" height="30" as="geometry" />
        </mxCell>
        <mxCell id="0yb1WNiDXI75J15WsoSP-29" value="&amp;lt;&amp;lt;extend&amp;gt;&amp;gt;" style="html=1;verticalAlign=bottom;labelBackgroundColor=none;endArrow=open;endFill=0;dashed=1;rounded=0;" parent="UnH_teKRYjCoHpWosyrO-82" edge="1">
          <mxGeometry width="160" relative="1" as="geometry">
            <mxPoint x="649" y="75" as="sourcePoint" />
            <mxPoint x="600" y="74.5" as="targetPoint" />
          </mxGeometry>
        </mxCell>
        <mxCell id="0yb1WNiDXI75J15WsoSP-31" value="&amp;lt;&amp;lt;extend&amp;gt;&amp;gt;" style="html=1;verticalAlign=bottom;labelBackgroundColor=none;endArrow=open;endFill=0;dashed=1;rounded=0;exitX=0;exitY=0.5;exitDx=0;exitDy=0;" parent="UnH_teKRYjCoHpWosyrO-82" source="0yb1WNiDXI75J15WsoSP-27" edge="1">
          <mxGeometry width="160" relative="1" as="geometry">
            <mxPoint x="870" y="74.5" as="sourcePoint" />
            <mxPoint x="710" y="74.5" as="targetPoint" />
          </mxGeometry>
        </mxCell>
        <mxCell id="0yb1WNiDXI75J15WsoSP-34" value="회원가입" style="ellipse;whiteSpace=wrap;html=1;" parent="UnH_teKRYjCoHpWosyrO-82" vertex="1">
          <mxGeometry x="8" y="291" width="90" height="30" as="geometry" />
        </mxCell>
        <mxCell id="iSfRtJDGHJUiywShVIox-3" value="로그인" style="ellipse;whiteSpace=wrap;html=1;" vertex="1" parent="UnH_teKRYjCoHpWosyrO-82">
          <mxGeometry x="8" y="496" width="90" height="30" as="geometry" />
        </mxCell>
        <mxCell id="iSfRtJDGHJUiywShVIox-5" value="&amp;lt;&amp;lt;include&amp;gt;&amp;gt;" style="html=1;verticalAlign=bottom;labelBackgroundColor=none;endArrow=open;endFill=0;dashed=1;rounded=0;" edge="1" parent="UnH_teKRYjCoHpWosyrO-82">
          <mxGeometry width="160" relative="1" as="geometry">
            <mxPoint x="98" y="510.5" as="sourcePoint" />
            <mxPoint x="168" y="511" as="targetPoint" />
          </mxGeometry>
        </mxCell>
        <mxCell id="iSfRtJDGHJUiywShVIox-6" value="메인메뉴(홈)" style="ellipse;whiteSpace=wrap;html=1;" vertex="1" parent="UnH_teKRYjCoHpWosyrO-82">
          <mxGeometry x="167" y="496" width="90" height="30" as="geometry" />
        </mxCell>
        <mxCell id="iSfRtJDGHJUiywShVIox-11" value="담당자추가" style="ellipse;whiteSpace=wrap;html=1;" vertex="1" parent="UnH_teKRYjCoHpWosyrO-82">
          <mxGeometry x="465" y="489" width="75" height="30" as="geometry" />
        </mxCell>
        <mxCell id="iSfRtJDGHJUiywShVIox-12" value="담당자삭제" style="ellipse;whiteSpace=wrap;html=1;" vertex="1" parent="UnH_teKRYjCoHpWosyrO-82">
          <mxGeometry x="465" y="549" width="72" height="30" as="geometry" />
        </mxCell>
        <mxCell id="iSfRtJDGHJUiywShVIox-13" value="&amp;lt;&amp;lt;extend&amp;gt;&amp;gt;" style="html=1;verticalAlign=bottom;labelBackgroundColor=none;endArrow=open;endFill=0;dashed=1;rounded=0;entryX=1;entryY=0.5;entryDx=0;entryDy=0;" edge="1" parent="UnH_teKRYjCoHpWosyrO-82">
          <mxGeometry x="-0.3645" y="21" width="160" relative="1" as="geometry">
            <mxPoint x="465" y="563.5" as="sourcePoint" />
            <mxPoint x="417" y="544" as="targetPoint" />
            <mxPoint y="1" as="offset" />
          </mxGeometry>
        </mxCell>
        <mxCell id="iSfRtJDGHJUiywShVIox-14" value="&amp;lt;&amp;lt;extend&amp;gt;&amp;gt;" style="html=1;verticalAlign=bottom;labelBackgroundColor=none;endArrow=open;endFill=0;dashed=1;rounded=0;entryX=1;entryY=0.5;entryDx=0;entryDy=0;" edge="1" parent="UnH_teKRYjCoHpWosyrO-82">
          <mxGeometry width="160" relative="1" as="geometry">
            <mxPoint x="465" y="504.5" as="sourcePoint" />
            <mxPoint x="417" y="544" as="targetPoint" />
          </mxGeometry>
        </mxCell>
        <mxCell id="iSfRtJDGHJUiywShVIox-15" value="&amp;lt;&amp;lt;include&amp;gt;&amp;gt;" style="html=1;verticalAlign=bottom;labelBackgroundColor=none;endArrow=open;endFill=0;dashed=1;rounded=0;" edge="1" parent="UnH_teKRYjCoHpWosyrO-82">
          <mxGeometry width="160" relative="1" as="geometry">
            <mxPoint x="539" y="502.5" as="sourcePoint" />
            <mxPoint x="609" y="503" as="targetPoint" />
          </mxGeometry>
        </mxCell>
        <mxCell id="iSfRtJDGHJUiywShVIox-16" value="추가" style="ellipse;whiteSpace=wrap;html=1;" vertex="1" parent="UnH_teKRYjCoHpWosyrO-82">
          <mxGeometry x="609" y="489" width="80" height="30" as="geometry" />
        </mxCell>
        <mxCell id="iSfRtJDGHJUiywShVIox-17" value="&amp;lt;&amp;lt;include&amp;gt;&amp;gt;" style="html=1;verticalAlign=bottom;labelBackgroundColor=none;endArrow=open;endFill=0;dashed=1;rounded=0;" edge="1" parent="UnH_teKRYjCoHpWosyrO-82">
          <mxGeometry width="160" relative="1" as="geometry">
            <mxPoint x="539" y="564.5" as="sourcePoint" />
            <mxPoint x="609" y="565" as="targetPoint" />
          </mxGeometry>
        </mxCell>
        <mxCell id="iSfRtJDGHJUiywShVIox-18" value="삭제" style="ellipse;whiteSpace=wrap;html=1;" vertex="1" parent="UnH_teKRYjCoHpWosyrO-82">
          <mxGeometry x="609" y="551" width="80" height="30" as="geometry" />
        </mxCell>
        <mxCell id="UnH_teKRYjCoHpWosyrO-1" value="Actor" style="shape=umlActor;verticalLabelPosition=bottom;verticalAlign=top;html=1;outlineConnect=0;" parent="1" vertex="1">
          <mxGeometry x="31" y="294" width="30" height="60" as="geometry" />
        </mxCell>
        <mxCell id="UnH_teKRYjCoHpWosyrO-2" value="로그인" style="ellipse;whiteSpace=wrap;html=1;" parent="1" vertex="1">
          <mxGeometry x="98" y="259" width="90" height="30" as="geometry" />
        </mxCell>
        <mxCell id="UnH_teKRYjCoHpWosyrO-3" value="로그인" style="ellipse;whiteSpace=wrap;html=1;" parent="1" vertex="1">
          <mxGeometry x="98" y="382" width="90" height="30" as="geometry" />
        </mxCell>
        <mxCell id="UnH_teKRYjCoHpWosyrO-8" value="메인메뉴(홈)" style="ellipse;whiteSpace=wrap;html=1;" parent="1" vertex="1">
          <mxGeometry x="257" y="388" width="90" height="30" as="geometry" />
        </mxCell>
        <mxCell id="UnH_teKRYjCoHpWosyrO-10" value="&amp;lt;&amp;lt;include&amp;gt;&amp;gt;" style="html=1;verticalAlign=bottom;labelBackgroundColor=none;endArrow=open;endFill=0;dashed=1;rounded=0;" parent="1" edge="1">
          <mxGeometry width="160" relative="1" as="geometry">
            <mxPoint x="188" y="402.5" as="sourcePoint" />
            <mxPoint x="258" y="403" as="targetPoint" />
          </mxGeometry>
        </mxCell>
        <mxCell id="UnH_teKRYjCoHpWosyrO-13" value="신고의뢰" style="ellipse;whiteSpace=wrap;html=1;" parent="1" vertex="1">
          <mxGeometry x="418" y="343" width="90" height="30" as="geometry" />
        </mxCell>
        <mxCell id="UnH_teKRYjCoHpWosyrO-14" value="&amp;lt;&amp;lt;extend&amp;gt;&amp;gt;" style="html=1;verticalAlign=bottom;labelBackgroundColor=none;endArrow=open;endFill=0;dashed=1;rounded=0;entryX=1;entryY=0.5;entryDx=0;entryDy=0;" parent="1" edge="1">
          <mxGeometry width="160" relative="1" as="geometry">
            <mxPoint x="418" y="357.5" as="sourcePoint" />
            <mxPoint x="348" y="402" as="targetPoint" />
          </mxGeometry>
        </mxCell>
        <mxCell id="UnH_teKRYjCoHpWosyrO-15" value="내역조회" style="ellipse;whiteSpace=wrap;html=1;" parent="1" vertex="1">
          <mxGeometry x="418" y="403" width="90" height="30" as="geometry" />
        </mxCell>
        <mxCell id="UnH_teKRYjCoHpWosyrO-16" value="&amp;lt;&amp;lt;extend&amp;gt;&amp;gt;" style="html=1;verticalAlign=bottom;labelBackgroundColor=none;endArrow=open;endFill=0;dashed=1;rounded=0;exitX=0;exitY=0.5;exitDx=0;exitDy=0;" parent="1" source="UnH_teKRYjCoHpWosyrO-15" edge="1">
          <mxGeometry width="160" relative="1" as="geometry">
            <mxPoint x="428" y="367.5" as="sourcePoint" />
            <mxPoint x="348" y="403" as="targetPoint" />
          </mxGeometry>
        </mxCell>
        <mxCell id="UnH_teKRYjCoHpWosyrO-17" value="&amp;lt;&amp;lt;include&amp;gt;&amp;gt;" style="html=1;verticalAlign=bottom;labelBackgroundColor=none;endArrow=open;endFill=0;dashed=1;rounded=0;" parent="1" edge="1">
          <mxGeometry width="160" relative="1" as="geometry">
            <mxPoint x="508" y="356.5" as="sourcePoint" />
            <mxPoint x="578" y="357" as="targetPoint" />
          </mxGeometry>
        </mxCell>
        <mxCell id="UnH_teKRYjCoHpWosyrO-18" value="주요정보" style="ellipse;whiteSpace=wrap;html=1;" parent="1" vertex="1">
          <mxGeometry x="578" y="343" width="90" height="30" as="geometry" />
        </mxCell>
        <mxCell id="UnH_teKRYjCoHpWosyrO-19" value="&amp;lt;&amp;lt;include&amp;gt;&amp;gt;" style="html=1;verticalAlign=bottom;labelBackgroundColor=none;endArrow=open;endFill=0;dashed=1;rounded=0;" parent="1" edge="1">
          <mxGeometry width="160" relative="1" as="geometry">
            <mxPoint x="668" y="356.5" as="sourcePoint" />
            <mxPoint x="738" y="357" as="targetPoint" />
          </mxGeometry>
        </mxCell>
        <mxCell id="UnH_teKRYjCoHpWosyrO-20" value="자료제출" style="ellipse;whiteSpace=wrap;html=1;" parent="1" vertex="1">
          <mxGeometry x="738" y="343" width="90" height="30" as="geometry" />
        </mxCell>
        <mxCell id="UnH_teKRYjCoHpWosyrO-21" value="&amp;lt;&amp;lt;include&amp;gt;&amp;gt;" style="html=1;verticalAlign=bottom;labelBackgroundColor=none;endArrow=open;endFill=0;dashed=1;rounded=0;" parent="1" edge="1">
          <mxGeometry width="160" relative="1" as="geometry">
            <mxPoint x="508" y="416.5" as="sourcePoint" />
            <mxPoint x="578" y="417" as="targetPoint" />
          </mxGeometry>
        </mxCell>
        <mxCell id="UnH_teKRYjCoHpWosyrO-22" value="주요정보" style="ellipse;whiteSpace=wrap;html=1;" parent="1" vertex="1">
          <mxGeometry x="578" y="403" width="80" height="30" as="geometry" />
        </mxCell>
        <mxCell id="UnH_teKRYjCoHpWosyrO-23" value="&amp;lt;&amp;lt;extend&amp;gt;&amp;gt;" style="html=1;verticalAlign=bottom;labelBackgroundColor=none;endArrow=open;endFill=0;dashed=1;rounded=0;entryX=0.5;entryY=1;entryDx=0;entryDy=0;" parent="1" target="UnH_teKRYjCoHpWosyrO-22" edge="1">
          <mxGeometry x="-0.6" y="-27" width="160" relative="1" as="geometry">
            <mxPoint x="618" y="483" as="sourcePoint" />
            <mxPoint x="598" y="483" as="targetPoint" />
            <mxPoint as="offset" />
          </mxGeometry>
        </mxCell>
        <mxCell id="UnH_teKRYjCoHpWosyrO-24" value="자료목록" style="ellipse;whiteSpace=wrap;html=1;" parent="1" vertex="1">
          <mxGeometry x="578" y="478" width="80" height="30" as="geometry" />
        </mxCell>
        <mxCell id="UnH_teKRYjCoHpWosyrO-25" value="&amp;lt;&amp;lt;extend&amp;gt;&amp;gt;" style="html=1;verticalAlign=bottom;labelBackgroundColor=none;endArrow=open;endFill=0;dashed=1;rounded=0;entryX=0.5;entryY=1;entryDx=0;entryDy=0;exitX=0.5;exitY=0;exitDx=0;exitDy=0;" parent="1" source="UnH_teKRYjCoHpWosyrO-26" edge="1">
          <mxGeometry x="-0.6025" y="21" width="160" relative="1" as="geometry">
            <mxPoint x="618.5" y="561" as="sourcePoint" />
            <mxPoint x="618.5" y="510" as="targetPoint" />
            <mxPoint as="offset" />
          </mxGeometry>
        </mxCell>
        <mxCell id="UnH_teKRYjCoHpWosyrO-26" value="다운로드" style="ellipse;whiteSpace=wrap;html=1;" parent="1" vertex="1">
          <mxGeometry x="512" y="560" width="66" height="30" as="geometry" />
        </mxCell>
        <mxCell id="UnH_teKRYjCoHpWosyrO-27" value="&amp;lt;&amp;lt;include&amp;gt;&amp;gt;" style="html=1;verticalAlign=bottom;labelBackgroundColor=none;endArrow=open;endFill=0;dashed=1;rounded=0;" parent="1" edge="1">
          <mxGeometry x="0.3333" y="13" width="160" relative="1" as="geometry">
            <mxPoint x="468" y="433" as="sourcePoint" />
            <mxPoint x="468" y="493" as="targetPoint" />
            <mxPoint as="offset" />
          </mxGeometry>
        </mxCell>
        <mxCell id="UnH_teKRYjCoHpWosyrO-28" value="담당자정보" style="ellipse;whiteSpace=wrap;html=1;" parent="1" vertex="1">
          <mxGeometry x="422" y="493" width="90" height="30" as="geometry" />
        </mxCell>
        <mxCell id="UnH_teKRYjCoHpWosyrO-29" value="&amp;lt;&amp;lt;extend&amp;gt;&amp;gt;" style="html=1;verticalAlign=bottom;labelBackgroundColor=none;endArrow=open;endFill=0;dashed=1;rounded=0;entryX=0;entryY=1;entryDx=0;entryDy=0;exitX=0.5;exitY=0;exitDx=0;exitDy=0;" parent="1" source="UnH_teKRYjCoHpWosyrO-32" target="UnH_teKRYjCoHpWosyrO-20" edge="1">
          <mxGeometry width="160" relative="1" as="geometry">
            <mxPoint x="738" y="423" as="sourcePoint" />
            <mxPoint x="788" y="373" as="targetPoint" />
          </mxGeometry>
        </mxCell>
        <mxCell id="UnH_teKRYjCoHpWosyrO-30" value="저장" style="ellipse;whiteSpace=wrap;html=1;" parent="1" vertex="1">
          <mxGeometry x="754" y="413" width="70" height="30" as="geometry" />
        </mxCell>
        <mxCell id="UnH_teKRYjCoHpWosyrO-31" value="&amp;lt;&amp;lt;extend&amp;gt;&amp;gt;" style="html=1;verticalAlign=bottom;labelBackgroundColor=none;endArrow=open;endFill=0;dashed=1;rounded=0;entryX=0;entryY=1;entryDx=0;entryDy=0;exitX=0.5;exitY=0;exitDx=0;exitDy=0;" parent="1" source="UnH_teKRYjCoHpWosyrO-30" edge="1">
          <mxGeometry width="160" relative="1" as="geometry">
            <mxPoint x="788" y="413" as="sourcePoint" />
            <mxPoint x="789.5" y="373" as="targetPoint" />
          </mxGeometry>
        </mxCell>
        <mxCell id="UnH_teKRYjCoHpWosyrO-32" value="삭제" style="ellipse;whiteSpace=wrap;html=1;" parent="1" vertex="1">
          <mxGeometry x="678" y="402" width="70" height="30" as="geometry" />
        </mxCell>
        <mxCell id="UnH_teKRYjCoHpWosyrO-34" value="&amp;lt;&amp;lt;extend&amp;gt;&amp;gt;" style="html=1;verticalAlign=bottom;labelBackgroundColor=none;endArrow=open;endFill=0;dashed=1;rounded=0;entryX=0.5;entryY=1;entryDx=0;entryDy=0;" parent="1" target="UnH_teKRYjCoHpWosyrO-24" edge="1">
          <mxGeometry x="-0.031" y="10" width="160" relative="1" as="geometry">
            <mxPoint x="688" y="560" as="sourcePoint" />
            <mxPoint x="793" y="560" as="targetPoint" />
            <mxPoint as="offset" />
          </mxGeometry>
        </mxCell>
        <mxCell id="UnH_teKRYjCoHpWosyrO-35" value="확인" style="ellipse;whiteSpace=wrap;html=1;" parent="1" vertex="1">
          <mxGeometry x="658" y="560" width="66" height="30" as="geometry" />
        </mxCell>
        <mxCell id="UnH_teKRYjCoHpWosyrO-36" value="수정" style="ellipse;whiteSpace=wrap;html=1;" parent="1" vertex="1">
          <mxGeometry x="586" y="560" width="66" height="30" as="geometry" />
        </mxCell>
        <mxCell id="UnH_teKRYjCoHpWosyrO-37" value="&amp;lt;&amp;lt;extend&amp;gt;&amp;gt;" style="html=1;verticalAlign=bottom;labelBackgroundColor=none;endArrow=open;endFill=0;dashed=1;rounded=0;" parent="1" source="UnH_teKRYjCoHpWosyrO-36" edge="1">
          <mxGeometry x="-0.6811" y="31" width="160" relative="1" as="geometry">
            <mxPoint x="498" y="673" as="sourcePoint" />
            <mxPoint x="618" y="513" as="targetPoint" />
            <mxPoint y="-1" as="offset" />
          </mxGeometry>
        </mxCell>
        <mxCell id="UnH_teKRYjCoHpWosyrO-41" value="&amp;lt;&amp;lt;extend&amp;gt;&amp;gt;" style="html=1;verticalAlign=bottom;labelBackgroundColor=none;endArrow=open;endFill=0;dashed=1;rounded=0;exitX=0.257;exitY=0.033;exitDx=0;exitDy=0;exitPerimeter=0;" parent="1" source="UnH_teKRYjCoHpWosyrO-40" edge="1">
          <mxGeometry width="160" relative="1" as="geometry">
            <mxPoint x="564" y="297.5" as="sourcePoint" />
            <mxPoint x="830" y="358" as="targetPoint" />
          </mxGeometry>
        </mxCell>
        <mxCell id="UnH_teKRYjCoHpWosyrO-42" value="DB" style="shape=cylinder3;whiteSpace=wrap;html=1;boundedLbl=1;backgroundOutline=1;size=15;" parent="1" vertex="1">
          <mxGeometry x="980" y="333" width="96" height="80" as="geometry" />
        </mxCell>
        <mxCell id="UnH_teKRYjCoHpWosyrO-89" value="Actor" style="shape=umlActor;verticalLabelPosition=bottom;verticalAlign=top;html=1;outlineConnect=0;" parent="1" vertex="1">
          <mxGeometry x="31" y="399" width="30" height="60" as="geometry" />
        </mxCell>
        <mxCell id="UnH_teKRYjCoHpWosyrO-88" value="관리자" style="text;html=1;align=center;verticalAlign=middle;whiteSpace=wrap;rounded=0;fillColor=default;" parent="1" vertex="1">
          <mxGeometry x="16" y="358" width="60" height="30" as="geometry" />
        </mxCell>
        <mxCell id="UnH_teKRYjCoHpWosyrO-6" value="" style="endArrow=none;html=1;rounded=0;entryX=0;entryY=0.5;entryDx=0;entryDy=0;" parent="1" target="UnH_teKRYjCoHpWosyrO-2" edge="1">
          <mxGeometry width="50" height="50" relative="1" as="geometry">
            <mxPoint x="61" y="330" as="sourcePoint" />
            <mxPoint x="101" y="360" as="targetPoint" />
          </mxGeometry>
        </mxCell>
        <mxCell id="0yb1WNiDXI75J15WsoSP-18" value="사번선택" style="ellipse;whiteSpace=wrap;html=1;" parent="1" vertex="1">
          <mxGeometry x="743" y="280" width="62" height="30" as="geometry" />
        </mxCell>
        <mxCell id="0yb1WNiDXI75J15WsoSP-22" value="&amp;lt;&amp;lt;extend&amp;gt;&amp;gt;" style="html=1;verticalAlign=bottom;labelBackgroundColor=none;endArrow=open;endFill=0;dashed=1;rounded=0;exitX=0;exitY=0.5;exitDx=0;exitDy=0;" parent="1" source="0yb1WNiDXI75J15WsoSP-18" edge="1">
          <mxGeometry width="160" relative="1" as="geometry">
            <mxPoint x="863" y="294.5" as="sourcePoint" />
            <mxPoint x="703" y="294.5" as="targetPoint" />
          </mxGeometry>
        </mxCell>
        <mxCell id="0yb1WNiDXI75J15WsoSP-28" value="저장" style="ellipse;whiteSpace=wrap;html=1;" parent="1" vertex="1">
          <mxGeometry x="847" y="280" width="65" height="30" as="geometry" />
        </mxCell>
        <mxCell id="0yb1WNiDXI75J15WsoSP-30" value="&amp;lt;&amp;lt;extend&amp;gt;&amp;gt;" style="html=1;verticalAlign=bottom;labelBackgroundColor=none;endArrow=open;endFill=0;dashed=1;rounded=0;exitX=0;exitY=0.5;exitDx=0;exitDy=0;" parent="1" source="0yb1WNiDXI75J15WsoSP-28" edge="1">
          <mxGeometry width="160" relative="1" as="geometry">
            <mxPoint x="965" y="294.5" as="sourcePoint" />
            <mxPoint x="805" y="294.5" as="targetPoint" />
          </mxGeometry>
        </mxCell>
        <mxCell id="0yb1WNiDXI75J15WsoSP-35" value="" style="endArrow=none;html=1;rounded=0;exitX=0;exitY=0.5;exitDx=0;exitDy=0;" parent="1" source="0yb1WNiDXI75J15WsoSP-34" edge="1">
          <mxGeometry width="50" height="50" relative="1" as="geometry">
            <mxPoint x="31" y="558" as="sourcePoint" />
            <mxPoint x="60" y="430" as="targetPoint" />
          </mxGeometry>
        </mxCell>
        <mxCell id="iSfRtJDGHJUiywShVIox-1" value="관리자" style="shape=umlActor;verticalLabelPosition=bottom;verticalAlign=top;html=1;outlineConnect=0;" vertex="1" parent="1">
          <mxGeometry x="31" y="640" width="30" height="60" as="geometry" />
        </mxCell>
        <mxCell id="iSfRtJDGHJUiywShVIox-4" value="" style="endArrow=none;html=1;rounded=0;entryX=0;entryY=0.5;entryDx=0;entryDy=0;exitX=0.5;exitY=0.5;exitDx=0;exitDy=0;exitPerimeter=0;" edge="1" parent="1" source="iSfRtJDGHJUiywShVIox-1" target="iSfRtJDGHJUiywShVIox-3">
          <mxGeometry width="50" height="50" relative="1" as="geometry">
            <mxPoint x="53" y="676" as="sourcePoint" />
            <mxPoint x="90" y="620" as="targetPoint" />
          </mxGeometry>
        </mxCell>
        <mxCell id="iSfRtJDGHJUiywShVIox-7" value="사용자목록" style="ellipse;whiteSpace=wrap;html=1;" vertex="1" parent="1">
          <mxGeometry x="418" y="627" width="90" height="30" as="geometry" />
        </mxCell>
        <mxCell id="iSfRtJDGHJUiywShVIox-8" value="담당자목록" style="ellipse;whiteSpace=wrap;html=1;" vertex="1" parent="1">
          <mxGeometry x="418" y="687" width="90" height="30" as="geometry" />
        </mxCell>
        <mxCell id="iSfRtJDGHJUiywShVIox-9" value="&amp;lt;&amp;lt;extend&amp;gt;&amp;gt;" style="html=1;verticalAlign=bottom;labelBackgroundColor=none;endArrow=open;endFill=0;dashed=1;rounded=0;exitX=0;exitY=0.5;exitDx=0;exitDy=0;entryX=1;entryY=0.5;entryDx=0;entryDy=0;" edge="1" source="iSfRtJDGHJUiywShVIox-8" parent="1" target="iSfRtJDGHJUiywShVIox-6">
          <mxGeometry width="160" relative="1" as="geometry">
            <mxPoint x="428" y="651.5" as="sourcePoint" />
            <mxPoint x="348" y="687" as="targetPoint" />
          </mxGeometry>
        </mxCell>
        <mxCell id="iSfRtJDGHJUiywShVIox-10" value="&amp;lt;&amp;lt;extend&amp;gt;&amp;gt;" style="html=1;verticalAlign=bottom;labelBackgroundColor=none;endArrow=open;endFill=0;dashed=1;rounded=0;entryX=1;entryY=0.5;entryDx=0;entryDy=0;" edge="1" parent="1" target="iSfRtJDGHJUiywShVIox-6">
          <mxGeometry width="160" relative="1" as="geometry">
            <mxPoint x="418" y="641.5" as="sourcePoint" />
            <mxPoint x="348" y="686" as="targetPoint" />
          </mxGeometry>
        </mxCell>
        <mxCell id="iSfRtJDGHJUiywShVIox-19" style="edgeStyle=orthogonalEdgeStyle;rounded=0;orthogonalLoop=1;jettySize=auto;html=1;exitX=0.5;exitY=1;exitDx=0;exitDy=0;entryX=0.5;entryY=1;entryDx=0;entryDy=0;entryPerimeter=0;" edge="1" parent="1">
          <mxGeometry relative="1" as="geometry">
            <Array as="points">
              <mxPoint x="299.97" y="687" />
              <mxPoint x="299.97" y="780" />
              <mxPoint x="1027.97" y="780" />
              <mxPoint x="1027.97" y="413" />
            </Array>
            <mxPoint x="301.91" y="687" as="sourcePoint" />
            <mxPoint x="1017.9100000000001" y="413" as="targetPoint" />
          </mxGeometry>
        </mxCell>
      </root>
    </mxGraphModel>
  </diagram>
</mxfile>
